<?xml version="1.0" standalone="no"?>
<!DOCTYPE svg PUBLIC "-//W3C//DTD SVG 20010904//EN"
 "http://www.w3.org/TR/2001/REC-SVG-20010904/DTD/svg10.dtd">
<svg version="1.0" xmlns="http://www.w3.org/2000/svg"
 width="512.000000pt" height="512.000000pt" viewBox="0 0 512.000000 512.000000"
 preserveAspectRatio="xMidYMid meet">

<g transform="translate(0.000000,512.000000) scale(0.100000,-0.100000)"
fill="#000000" stroke="none">
<path d="M4558 5101 c-67 -22 -280 -154 -314 -194 -26 -31 -31 -72 -12 -111
20 -46 52 -58 182 -67 134 -10 146 -13 146 -31 0 -7 -136 -103 -302 -213 -166
-110 -345 -232 -399 -272 -60 -44 -222 -193 -428 -394 -182 -177 -348 -332
-368 -344 -21 -12 -157 -97 -301 -189 -145 -92 -266 -165 -269 -163 -7 8 218
205 309 270 46 32 120 82 166 110 93 57 98 61 107 99 6 22 1 33 -24 59 -26 25
-37 30 -59 24 -40 -10 -198 -108 -320 -199 -118 -88 -371 -336 -442 -433 -25
-34 -49 -61 -54 -60 -11 4 -96 157 -96 174 0 18 108 141 218 250 168 166 410
346 603 447 l75 40 60 -37 c70 -43 96 -46 129 -12 59 58 20 109 -151 197 -232
120 -417 172 -689 193 -92 7 -292 -8 -403 -31 -519 -107 -973 -475 -1176 -954
-98 -231 -130 -392 -130 -655 0 -167 4 -205 27 -317 44 -209 127 -409 240
-578 43 -64 70 -100 166 -213 14 -16 -20 -53 -461 -495 -369 -371 -480 -488
-499 -527 -20 -42 -24 -65 -24 -145 0 -84 3 -101 27 -145 34 -65 100 -128 163
-157 40 -18 67 -23 135 -23 123 1 167 26 314 175 95 96 116 122 116 146 0 17
-5 35 -12 42 -10 10 1 25 47 72 47 48 62 57 76 49 53 -28 59 -23 384 300 l310
309 100 -33 c193 -65 285 -79 520 -79 180 0 225 3 315 23 232 49 454 146 640
279 121 85 285 250 373 372 74 105 197 339 197 377 0 33 -42 73 -78 73 -39 0
-53 -18 -121 -156 -123 -249 -290 -436 -524 -588 -152 -100 -337 -173 -532
-213 -121 -24 -424 -24 -540 0 -105 22 -225 58 -225 67 0 12 165 166 250 234
74 59 277 196 291 196 4 0 49 -29 100 -64 143 -97 252 -156 287 -156 21 0 37
8 51 26 42 54 26 87 -71 144 -40 23 -108 65 -150 92 l-78 51 86 54 c47 30 88
53 92 51 4 -2 50 -29 103 -60 53 -32 139 -78 192 -104 89 -43 97 -45 123 -32
16 7 35 25 43 40 19 33 4 72 -36 94 -16 8 -86 47 -158 85 -71 39 -132 72 -134
75 -2 2 9 14 25 26 16 13 50 42 75 66 l47 43 124 -64 c174 -89 280 -129 312
-118 27 11 56 47 56 72 0 30 -39 66 -97 89 -54 22 -273 127 -282 135 -2 3 14
26 36 52 21 26 55 71 75 98 43 61 409 638 431 680 8 17 33 47 55 68 l39 38 21
-73 c70 -237 87 -463 51 -670 -8 -47 -7 -63 6 -88 28 -55 103 -49 132 11 7 14
18 89 25 167 19 228 -9 451 -86 676 l-35 101 628 630 c704 706 670 666 679
821 5 94 -12 159 -60 237 -88 139 -284 210 -440 158z m195 -147 c57 -19 120
-81 143 -139 20 -53 16 -143 -9 -195 -10 -20 -313 -331 -709 -727 l-693 -693
-112 108 c-62 59 -113 112 -113 118 0 21 587 591 680 661 52 38 238 165 413
282 290 193 320 216 338 254 33 74 20 145 -37 199 -37 34 -74 48 -129 48 -24
0 -46 4 -50 9 -6 10 89 68 133 81 44 13 95 11 145 -6z m-2268 -880 c94 -14
250 -55 292 -77 24 -13 22 -15 -82 -78 -206 -124 -421 -300 -595 -488 -52 -55
-97 -97 -101 -93 -3 4 -20 47 -38 95 l-31 89 39 47 c49 58 143 147 279 264 92
79 102 91 102 122 0 38 -37 75 -76 75 -28 0 -145 -92 -281 -224 -57 -54 -106
-97 -108 -94 -7 6 -45 263 -45 300 0 23 6 29 39 38 178 48 396 57 606 24z
m-785 -181 c40 -328 165 -691 330 -958 23 -38 51 -84 61 -100 l19 -31 -64 -76
-64 -77 -70 107 c-198 306 -330 645 -387 992 -8 52 -17 107 -20 122 -4 25 2
30 88 72 51 25 93 46 93 46 1 0 7 -44 14 -97z m-325 -173 c11 -86 79 -343 123
-465 82 -229 194 -448 329 -643 l64 -93 -53 -85 -53 -85 -23 28 c-38 46 -156
223 -207 308 -70 118 -136 254 -194 400 -54 134 -76 165 -118 165 -31 0 -73
-42 -73 -74 0 -24 49 -155 104 -278 l25 -57 -35 -83 c-80 -187 -194 -569 -194
-650 0 -36 40 -78 73 -78 50 0 67 28 97 162 29 126 96 343 131 426 l20 45 60
-99 60 -98 -40 -141 c-49 -167 -76 -296 -93 -439 l-12 -106 -97 -96 -96 -95
-51 56 c-159 174 -282 428 -334 690 -29 143 -31 392 -5 535 61 331 238 643
488 859 58 50 85 68 90 59 4 -7 10 -38 14 -68z m317 -1513 c-6 -21 -134 -208
-139 -203 -5 5 16 107 49 229 l20 77 37 -47 c20 -25 35 -51 33 -56z"/>
</g>
</svg>
