<?xml version="1.0" standalone="no"?>
<!DOCTYPE svg PUBLIC "-//W3C//DTD SVG 20010904//EN"
 "http://www.w3.org/TR/2001/REC-SVG-20010904/DTD/svg10.dtd">
<svg version="1.0" xmlns="http://www.w3.org/2000/svg"
 width="512.000000pt" height="512.000000pt" viewBox="0 0 512.000000 512.000000"
 preserveAspectRatio="xMidYMid meet">

<g transform="translate(0.000000,512.000000) scale(0.100000,-0.100000)"
fill="#000000" stroke="none">
<path d="M2230 5113 c-339 -34 -640 -200 -840 -464 l-59 -76 -63 -7 c-387 -40
-768 -317 -932 -678 -82 -180 -111 -310 -111 -508 0 -160 16 -257 65 -398 l29
-82 -23 -15 c-12 -8 -33 -34 -47 -57 -23 -41 -24 -52 -27 -252 -4 -224 2 -260
50 -322 24 -29 110 -74 146 -74 l22 0 0 -574 c0 -627 2 -662 59 -828 115 -338
386 -606 731 -721 155 -52 134 -51 1065 -54 949 -4 968 -3 1146 53 271 85 502
272 650 525 76 131 130 300 145 454 6 67 5 73 -20 102 -48 58 -128 52 -159
-10 -9 -18 -23 -75 -31 -128 -59 -371 -326 -666 -695 -767 l-96 -27 -835 -3
c-593 -2 -863 0 -930 8 -381 47 -697 320 -802 695 -22 78 -23 94 -26 678 l-3
597 1701 0 1700 0 0 -156 c0 -120 4 -163 15 -189 33 -67 117 -73 167 -11 15
18 18 45 18 189 l0 167 33 0 c33 0 97 37 130 75 48 56 51 72 55 270 5 230 -4
280 -58 339 l-38 41 33 100 c45 137 59 227 59 380 0 179 -42 364 -118 512 -14
29 -26 55 -26 57 0 3 19 15 41 27 41 21 42 21 68 2 47 -35 123 -58 186 -57
215 3 356 234 260 427 -31 63 -72 104 -138 139 -63 34 -193 33 -261 -2 -98
-50 -166 -159 -166 -266 0 -43 -1 -44 -52 -70 l-52 -26 -60 63 c-34 35 -81 81
-105 103 l-44 38 106 106 c105 105 105 105 137 93 92 -32 224 2 297 76 62 62
87 121 87 208 0 271 -323 401 -513 205 -72 -75 -100 -195 -66 -291 l16 -43
-118 -118 c-65 -65 -124 -118 -131 -118 -7 0 -35 11 -62 25 -65 33 -210 74
-312 89 l-82 11 -53 70 c-245 325 -663 509 -1063 468z m85 -245 c-124 -79
-223 -158 -341 -271 l-109 -104 -69 23 c-37 13 -96 29 -130 35 -33 6 -65 15
-69 19 -5 4 16 32 46 63 177 177 429 279 702 286 l50 1 -80 -52z m2062 26 c11
-7 26 -29 33 -48 28 -86 -77 -164 -146 -108 -50 40 -57 95 -19 141 36 42 81
47 132 15z m-1587 -84 c82 -42 153 -93 226 -163 81 -76 81 -79 4 -92 -70 -11
-210 -60 -292 -101 -115 -57 -206 -122 -300 -213 l-88 -84 -87 83 c-48 45
-111 98 -140 118 l-54 35 53 55 c119 122 289 243 472 338 129 67 123 66 206
24z m-1205 -451 c88 -14 185 -44 249 -76 l48 -25 -83 -56 c-130 -86 -214 -155
-345 -285 l-122 -119 -31 59 c-62 114 -127 301 -154 449 -6 31 -5 31 51 44
118 27 253 30 387 9z m1927 -18 c43 -11 101 -31 129 -44 l52 -22 -69 -46
c-146 -97 -387 -322 -509 -476 l-50 -63 -37 75 c-41 81 -78 174 -110 275 -25
80 -59 241 -52 251 6 10 116 46 195 64 98 22 351 14 451 -14z m1146 -46 c38
-32 46 -65 28 -110 -28 -67 -114 -79 -161 -23 -76 90 43 209 133 133z m-3702
-72 c46 -206 117 -387 212 -549 l30 -51 -57 -91 c-32 -50 -68 -111 -82 -136
-13 -25 -26 -46 -29 -46 -9 0 -107 162 -150 249 -56 114 -115 266 -146 381
l-26 95 53 49 c53 48 164 126 180 126 5 0 11 -12 15 -27z m1744 -159 c51 -192
110 -338 198 -488 l40 -69 -68 -131 c-72 -137 -117 -243 -155 -361 l-23 -70
-77 -3 c-64 -2 -77 0 -72 11 116 303 98 668 -48 958 l-36 71 101 100 c55 56
103 99 106 96 3 -3 18 -55 34 -114z m1265 14 c76 -78 148 -176 139 -190 -3 -5
-33 -22 -67 -40 -174 -87 -376 -254 -519 -428 -93 -114 -201 -294 -255 -427
l-22 -53 -165 0 c-92 0 -166 3 -166 8 0 22 80 213 130 312 171 334 410 602
734 822 55 38 104 68 110 68 6 0 42 -33 81 -72z m-1829 -10 c63 -67 121 -143
147 -194 l16 -30 -57 -28 c-318 -154 -629 -488 -762 -818 l-24 -58 -187 0
-187 0 34 90 c161 427 471 803 861 1045 49 30 91 55 94 55 3 0 33 -28 65 -62z
m-1553 -291 c61 -178 170 -388 291 -562 31 -44 56 -83 56 -88 0 -4 -14 -48
-31 -97 l-32 -90 -172 0 -173 0 -21 53 c-99 245 -101 521 -5 751 14 34 30 73
36 89 5 15 13 27 16 27 4 0 20 -37 35 -83z m3640 -148 c51 -186 35 -425 -41
-621 l-26 -68 -348 0 -348 0 30 60 c127 252 321 469 540 606 109 68 155 93
165 90 6 -1 18 -32 28 -67z m-1833 -21 c44 -202 28 -412 -47 -600 l-26 -68
-319 0 c-175 0 -318 2 -318 5 0 24 116 219 182 305 45 59 207 213 278 264 56
41 210 135 237 145 1 1 7 -23 13 -51z m-1800 -920 c17 -72 81 -204 124 -255
20 -22 36 -44 36 -47 0 -4 -73 -5 -162 -4 l-163 3 -3 165 c-1 90 0 170 2 177
4 9 28 13 80 13 l74 0 12 -52z m613 -14 c21 -84 67 -178 119 -240 l40 -49 -76
-3 c-155 -6 -279 39 -377 137 -53 53 -100 134 -115 194 l-6 27 199 0 200 0 16
-66z m606 8 c14 -70 74 -192 125 -255 l38 -47 -79 0 c-110 0 -176 14 -260 55
-85 42 -162 121 -205 210 -47 101 -58 95 171 95 l198 0 12 -58z m615 -22 c27
-92 62 -160 115 -228 l41 -52 -78 0 c-242 0 -405 104 -483 310 l-19 50 201 -2
201 -3 22 -75z m596 38 c28 -112 67 -193 132 -270 l39 -48 -79 0 c-165 0 -278
41 -374 134 -52 51 -104 138 -123 204 l-6 22 200 0 200 0 11 -42z m610 -10
c17 -72 81 -204 124 -255 20 -22 36 -44 36 -47 0 -12 -164 -5 -230 10 -158 36
-288 160 -335 322 l-6 22 199 0 200 0 12 -52z m628 -122 c1 -93 -1 -173 -6
-178 -13 -13 -111 10 -180 42 -107 50 -212 175 -238 283 l-6 27 213 -2 214 -3
3 -169z"/>
<path d="M947 1915 c-30 -31 -37 -62 -23 -106 19 -59 55 -69 242 -69 89 0 175
5 192 11 66 23 86 108 36 160 l-28 29 -197 0 -196 0 -26 -25z"/>
<path d="M1744 1922 c-52 -41 -55 -109 -8 -153 25 -23 32 -24 192 -27 187 -3
224 6 251 62 18 37 1 97 -34 120 -37 25 -371 23 -401 -2z"/>
<path d="M2529 1911 c-58 -58 -26 -151 56 -167 18 -3 99 -4 178 -2 138 3 147
4 171 27 47 44 44 112 -8 153 -18 15 -45 18 -194 18 l-174 0 -29 -29z"/>
<path d="M3287 1915 c-34 -34 -40 -67 -23 -110 24 -56 58 -65 239 -65 85 0
168 5 185 11 66 23 84 109 33 160 l-29 29 -190 0 -189 0 -26 -25z"/>
<path d="M4078 1551 c-27 -24 -33 -36 -33 -71 0 -72 76 -121 138 -89 99 51 59
189 -54 189 -10 0 -33 -13 -51 -29z"/>
<path d="M952 1515 c-36 -30 -45 -69 -27 -112 23 -55 53 -63 245 -63 220 0
250 13 250 108 0 33 -6 45 -31 66 -30 26 -31 26 -219 26 -186 0 -189 0 -218
-25z"/>
<path d="M1744 1522 c-52 -41 -55 -109 -8 -153 25 -24 29 -24 209 -24 179 0
184 1 208 23 32 30 41 65 27 107 -20 60 -38 65 -237 65 -154 0 -181 -3 -199
-18z"/>
<path d="M2529 1511 c-57 -58 -27 -151 53 -166 19 -4 100 -5 180 -3 139 3 148
4 172 27 47 44 44 112 -8 153 -18 15 -45 18 -194 18 l-174 0 -29 -29z"/>
<path d="M3305 1528 c-42 -24 -60 -78 -40 -124 23 -56 53 -64 233 -64 88 0
173 5 190 11 66 23 84 109 33 160 l-29 29 -184 0 c-117 0 -190 -5 -203 -12z"/>
<path d="M949 1112 c-23 -21 -31 -37 -32 -64 -1 -42 24 -85 59 -98 14 -6 102
-10 195 -10 217 0 249 14 249 105 0 27 -8 44 -29 66 l-29 29 -191 0 -191 0
-31 -28z"/>
<path d="M1753 1128 c-30 -15 -56 -72 -48 -107 3 -16 17 -39 31 -52 25 -23 30
-24 209 -24 179 0 184 1 209 24 14 13 28 36 31 52 8 37 -18 93 -51 108 -32 14
-350 14 -381 -1z"/>
<path d="M2531 1111 c-51 -48 -38 -127 26 -160 13 -7 84 -11 182 -11 156 0
160 1 189 25 37 31 48 75 32 116 -22 52 -51 59 -233 59 l-165 0 -31 -29z"/>
<path d="M3289 1112 c-43 -38 -45 -101 -5 -140 26 -27 27 -27 203 -30 186 -4
221 2 248 42 26 36 19 94 -14 127 l-29 29 -186 0 -186 0 -31 -28z"/>
<path d="M1121 726 c-47 -27 -63 -84 -37 -135 22 -41 55 -51 172 -51 103 0
106 1 135 29 38 39 40 97 5 138 -24 27 -27 28 -138 31 -81 1 -120 -2 -137 -12z"/>
<path d="M1738 711 c-27 -24 -33 -36 -33 -71 0 -35 6 -47 33 -71 l32 -29 175
0 175 0 32 29 c27 24 33 36 33 71 0 35 -6 47 -33 71 l-32 29 -175 0 -175 0
-32 -29z"/>
<path d="M2555 728 c-62 -34 -74 -108 -24 -157 l31 -31 163 0 c97 0 174 4 188
11 63 29 72 116 16 163 -30 26 -33 26 -192 26 -99 0 -170 -5 -182 -12z"/>
<path d="M3289 712 c-26 -24 -32 -36 -32 -72 0 -36 6 -48 32 -72 30 -27 35
-28 142 -28 109 0 111 0 140 29 21 22 29 39 29 66 0 82 -39 105 -179 105 -96
0 -102 -1 -132 -28z"/>
</g>
</svg>
