<?xml version="1.0" standalone="no"?>
<!DOCTYPE svg PUBLIC "-//W3C//DTD SVG 20010904//EN"
 "http://www.w3.org/TR/2001/REC-SVG-20010904/DTD/svg10.dtd">
<svg version="1.0" xmlns="http://www.w3.org/2000/svg"
 width="512.000000pt" height="512.000000pt" viewBox="0 0 512.000000 512.000000"
 preserveAspectRatio="xMidYMid meet">

<g transform="translate(0.000000,512.000000) scale(0.100000,-0.100000)"
fill="#000000" stroke="none">
<path d="M3727 5106 c-95 -35 -165 -108 -192 -199 -31 -103 -9 -198 63 -278
l45 -50 -301 -777 c-165 -427 -306 -789 -311 -805 l-11 -27 -72 53 c-208 151
-418 245 -668 299 -91 19 -135 22 -325 23 -193 0 -233 -3 -327 -23 -711 -153
-1228 -700 -1339 -1417 -7 -44 -12 -150 -12 -235 5 -1006 894 -1786 1885
-1655 203 27 426 99 596 193 l53 29 67 -45 c376 -254 863 -254 1252 -1 81 53
243 214 298 295 87 130 153 291 183 444 18 96 16 299 -5 403 -29 151 -86 289
-172 418 -88 130 -136 157 -189 104 -31 -30 -32 -65 -2 -102 13 -15 36 -44 50
-64 l28 -37 -78 -45 c-150 -88 -323 -151 -500 -182 -85 -14 -183 -20 -183 -10
0 23 71 217 103 280 69 139 195 315 225 315 7 0 35 -11 62 -25 65 -33 103 -33
129 1 41 52 24 92 -59 134 -130 66 -275 107 -417 119 l-74 6 -34 84 c-45 109
-114 229 -193 337 -40 54 -60 90 -55 98 5 7 269 313 587 680 498 574 582 667
600 661 12 -4 53 -9 92 -12 91 -7 156 13 218 68 174 153 110 441 -112 505 -98
29 -206 4 -285 -65 -88 -78 -119 -229 -68 -338 l23 -50 -557 -644 c-307 -354
-566 -653 -577 -664 -24 -24 -63 -131 317 851 l299 772 60 4 c153 10 257 120
264 280 4 65 0 85 -21 130 -30 65 -87 124 -147 151 -57 26 -162 32 -213 13z
m171 -162 c72 -46 83 -157 22 -219 -77 -80 -210 -46 -239 61 -27 99 57 193
159 178 19 -3 45 -12 58 -20z m730 -440 c85 -55 80 -198 -9 -246 -100 -54
-209 14 -209 130 0 43 5 57 31 87 48 54 128 67 187 29z m-2394 -1330 c44 -9
84 -19 88 -22 4 -4 -29 -29 -74 -56 -190 -114 -428 -323 -562 -493 -131 -167
-316 -492 -316 -555 0 -30 32 -66 65 -74 43 -11 70 18 127 138 197 409 526
745 921 939 l63 31 82 -41 c45 -22 95 -49 113 -60 l31 -19 -87 -57 c-269 -177
-512 -431 -672 -703 -157 -266 -260 -572 -294 -874 l-13 -107 -113 -131 c-62
-72 -118 -140 -123 -150 -24 -44 15 -101 71 -102 29 -1 42 8 99 71 l66 72 12
-123 c20 -207 77 -432 157 -618 19 -45 35 -83 35 -84 0 -11 -240 22 -256 35
-27 22 -147 283 -189 412 -25 75 -57 198 -71 274 -24 120 -27 165 -28 343 -1
174 3 227 23 347 27 158 24 185 -26 204 -31 12 -78 -4 -93 -31 -5 -10 -20 -71
-32 -136 -20 -104 -23 -150 -23 -374 0 -202 4 -275 18 -350 39 -204 89 -367
164 -533 25 -54 43 -100 41 -102 -6 -5 -177 72 -246 112 -63 36 -70 43 -111
122 -158 305 -238 703 -211 1051 54 684 425 1278 1010 1617 l95 55 89 -7 c49
-3 125 -13 170 -21z m-644 -32 c-121 -83 -325 -285 -432 -427 -33 -44 -64 -81
-68 -83 -9 -3 -160 156 -160 168 0 12 121 108 200 160 95 61 236 128 353 166
114 37 145 42 107 16z m1347 -304 l21 -23 -54 -137 -53 -137 -242 -278 c-240
-276 -241 -278 -278 -275 -47 4 -214 42 -224 51 -10 9 80 158 161 268 81 109
281 309 385 387 81 60 245 166 257 166 3 0 16 -10 27 -22z m-2018 -260 l84
-87 -61 -123 c-34 -68 -71 -149 -82 -180 l-21 -57 -46 52 c-50 56 -163 204
-170 224 -5 13 80 148 146 232 35 43 45 51 55 40 7 -8 49 -53 95 -101z m2294
-48 c46 -67 160 -280 154 -286 -1 -2 -38 -10 -82 -19 -151 -31 -288 -89 -414
-174 l-61 -42 17 43 c9 24 49 125 88 226 68 176 74 186 144 268 85 98 77 99
154 -16z m-2641 -322 c12 -18 65 -82 117 -142 l94 -108 -21 -92 c-12 -50 -28
-147 -37 -216 -9 -69 -18 -126 -20 -128 -13 -13 -265 308 -265 338 0 66 83
380 101 380 4 0 18 -15 31 -32z m2083 -174 c-13 -36 -27 -69 -29 -73 -5 -8
-66 -2 -66 6 0 6 111 133 116 133 2 0 -7 -30 -21 -66z m707 9 c-138 -166 -252
-403 -296 -619 -87 -415 11 -850 264 -1180 33 -43 58 -79 57 -81 -2 -1 -32 2
-68 8 -60 11 -68 15 -124 73 -153 155 -268 377 -322 621 -25 113 -29 343 -8
466 19 114 57 240 104 344 41 90 145 244 218 323 55 60 61 64 128 77 39 7 74
14 78 14 5 1 -9 -20 -31 -46z m339 28 c13 -5 3 -24 -52 -101 -274 -379 -347
-865 -197 -1314 40 -122 129 -293 205 -393 34 -46 59 -84 55 -87 -4 -2 -28 -6
-53 -10 l-46 -7 -70 75 c-225 241 -338 513 -350 841 -4 112 -1 175 11 247 43
260 158 497 336 690 68 74 72 76 108 71 20 -3 44 -9 53 -12z m-1483 -220 c55
-11 162 -28 239 -37 76 -9 139 -18 141 -19 1 -1 -14 -26 -34 -56 -52 -77 -90
-156 -124 -257 l-30 -87 -82 2 c-122 4 -428 65 -428 85 0 40 72 279 115 381
l15 35 43 -13 c25 -7 90 -23 145 -34z m642 -52 c-33 -64 -57 -118 -83 -192 -7
-17 -9 -17 -47 4 -22 13 -40 27 -40 32 0 20 197 243 207 234 1 -2 -15 -37 -37
-78z m-2259 -394 l106 -110 12 -119 c14 -142 50 -317 90 -441 16 -49 28 -91
26 -93 -1 -1 -27 28 -57 65 -193 241 -313 527 -343 823 l-6 65 32 -40 c18 -22
81 -89 140 -150z m3817 43 c12 -35 22 -71 22 -80 0 -33 -199 -163 -352 -229
-152 -66 -321 -108 -500 -123 l-58 -5 0 118 0 118 88 7 c118 10 274 41 385 77
91 30 284 118 342 157 17 11 35 21 41 21 6 1 20 -27 32 -61z m-1700 -20 c1 -7
-4 -53 -11 -101 l-13 -88 -67 48 c-75 54 -75 53 -35 160 l19 53 52 -30 c29
-16 53 -35 55 -42z m-623 -157 c55 -11 128 -22 163 -26 34 -4 62 -10 62 -13 0
-4 -32 -98 -72 -210 l-73 -203 -50 6 c-112 14 -241 37 -249 46 -5 5 -12 72
-14 149 l-5 140 58 65 c31 36 62 65 68 65 7 0 57 -9 112 -19z m2371 -276 c-13
-45 -255 -198 -418 -263 -108 -43 -271 -86 -369 -97 l-56 -7 -26 79 c-14 43
-28 94 -32 114 l-7 37 74 7 c112 11 269 43 371 76 110 35 307 131 397 192 l65
44 3 -81 c2 -45 0 -90 -2 -101z m-1844 110 c64 -38 67 -42 73 -85 3 -25 10
-74 15 -110 5 -35 7 -66 5 -68 -10 -10 -160 106 -166 129 -10 33 -11 181 -1
177 4 -1 37 -21 74 -43z m-219 -207 c4 -24 10 -53 13 -65 6 -21 3 -23 -36 -23
-28 0 -40 4 -38 13 15 56 43 125 48 122 4 -3 10 -24 13 -47z m1978 -192 c-31
-79 -151 -239 -233 -308 -61 -53 -183 -133 -232 -153 l-34 -14 -45 52 c-51 60
-139 189 -133 195 3 2 49 12 103 23 54 10 141 33 193 50 95 31 288 119 345
157 40 27 46 27 36 -2z m-2337 -26 c39 -6 71 -12 72 -13 2 -2 -13 -45 -32 -97
-41 -111 -45 -151 -19 -180 24 -26 85 -27 109 -2 12 14 106 251 106 269 0 2
45 3 99 3 l99 0 40 -75 c37 -68 80 -130 146 -211 l25 -31 -97 -46 c-142 -66
-300 -112 -458 -132 l-50 -7 -41 88 c-49 106 -95 236 -123 344 -28 111 -28
114 18 106 20 -3 68 -11 106 -16z m666 -17 c66 -36 70 -41 96 -103 15 -36 45
-96 66 -133 l38 -69 -39 31 c-45 36 -124 126 -167 191 -49 73 -76 120 -69 120
3 0 37 -17 75 -37z"/>
</g>
</svg>
